<svg xmlns="http://www.w3.org/2000/svg" xmlns:xlink="http://www.w3.org/1999/xlink" version="1.1" id="svg-805b" x="0px" y="0px" viewBox="0 0 477.867 477.867" style="enable-background:new 0 0 477.867 477.867;" xml:space="preserve" class="u-svg-content">
<path d="M460.8,153.6h-51.2v-34.133c0-9.426-7.641-17.067-17.067-17.067H17.067C7.641,102.4,0,110.041,0,119.467V358.4    c0,9.426,7.641,17.067,17.067,17.067h375.467c9.426,0,17.067-7.641,17.067-17.067v-51.2h51.2c9.426,0,17.067-7.641,17.067-17.067    V170.667C477.867,161.241,470.226,153.6,460.8,153.6z M375.467,341.333H34.133v-204.8h341.333V341.333z M443.733,273.067H409.6    v-85.333h34.133V273.067z"></path>
<path d="M68.267,170.667c-9.426,0-17.067,7.641-17.067,17.067v102.4c0,9.426,7.641,17.067,17.067,17.067    s17.067-7.641,17.067-17.067v-102.4C85.333,178.308,77.692,170.667,68.267,170.667z"></path>
</svg>